<svg id="Calque_3" data-name="Calque 3" xmlns="http://www.w3.org/2000/svg" viewBox="0 0 32 16"><defs><style>.cls-1{fill:#444e68;}.cls-2{fill:#a3e669;}.cls-3{fill:#e6ebec;}.cls-4,.cls-5{fill:none;stroke:#556080;stroke-miterlimit:10;}.cls-4{stroke-width:1.15px;}.cls-5{stroke-width:0.01px;}</style></defs><path class="cls-1" d="M22.75,14.32a1.29,1.29,0,0,1-.25.06H7.78a3.51,3.51,0,0,1-1-.16c-.48-.15-1-.33-1.41-.52a2.8,2.8,0,0,1-.56-.32,6.14,6.14,0,0,1-1.68-1.69,5.76,5.76,0,0,1-1-3.23A6,6,0,0,1,2.66,6.3,5.66,5.66,0,0,1,4.27,4.13,5.78,5.78,0,0,1,6.28,3a11.1,11.1,0,0,1,1.39-.3A11.14,11.14,0,0,1,9.3,2.65H22.66a1.4,1.4,0,0,1,.28.06,13.26,13.26,0,0,0-1.41.37,14.11,14.11,0,0,0-1.35.67l-.25,0H8.35a6.76,6.76,0,0,0-1.18.13,4.48,4.48,0,0,0-1.91.86A4.73,4.73,0,0,0,3.41,7.59a4.3,4.3,0,0,0,.38,3,4.89,4.89,0,0,0,4.63,2.77c3.86,0,7.73,0,11.6,0h.19a6.89,6.89,0,0,0,2.27.95l.08,0Z"/><path class="cls-2" d="M20.18,3.75c-.4.38-.84.73-1.2,1.14A5.34,5.34,0,0,0,17.8,7.27a5.7,5.7,0,0,0,1.1,4.82,7,7,0,0,0,1.31,1.24H20c-3.87,0-7.74,0-11.6,0a4.89,4.89,0,0,1-4.63-2.77,4.3,4.3,0,0,1-.38-3A4.73,4.73,0,0,1,5.26,4.73a4.48,4.48,0,0,1,1.91-.86,6.76,6.76,0,0,1,1.18-.13H19.93Z"/><path class="cls-3" d="M28.68,8.53a5,5,0,0,1-9.91,0,5,5,0,0,1,9.91,0Z"/><ellipse class="cls-4" cx="23.73" cy="8.54" rx="5.52" ry="5.23"/><path class="cls-5" d="M22.75,14.32a1.29,1.29,0,0,1-.25.06H7.78a3.51,3.51,0,0,1-1-.16c-.48-.15-1-.33-1.41-.52a2.8,2.8,0,0,1-.56-.32,6.14,6.14,0,0,1-1.68-1.69,5.76,5.76,0,0,1-1-3.23A6,6,0,0,1,2.66,6.3,5.66,5.66,0,0,1,4.27,4.13,5.78,5.78,0,0,1,6.28,3a11.1,11.1,0,0,1,1.39-.3A11.14,11.14,0,0,1,9.3,2.65H22.66a1.4,1.4,0,0,1,.28.06,13.26,13.26,0,0,0-1.41.37,14.11,14.11,0,0,0-1.35.67l-.25,0H8.35a6.76,6.76,0,0,0-1.18.13,4.48,4.48,0,0,0-1.91.86A4.73,4.73,0,0,0,3.41,7.59a4.3,4.3,0,0,0,.38,3,4.89,4.89,0,0,0,4.63,2.77c3.86,0,7.73,0,11.6,0h.19a6.89,6.89,0,0,0,2.27.95l.08,0Z"/><path class="cls-5" d="M20.18,3.75c-.4.38-.84.73-1.2,1.14A5.34,5.34,0,0,0,17.8,7.27a5.7,5.7,0,0,0,1.1,4.82,7,7,0,0,0,1.31,1.24H20c-3.87,0-7.74,0-11.6,0a4.89,4.89,0,0,1-4.63-2.77,4.3,4.3,0,0,1-.38-3A4.73,4.73,0,0,1,5.26,4.73a4.48,4.48,0,0,1,1.91-.86,6.76,6.76,0,0,1,1.18-.13H19.93Z"/><path class="cls-5" d="M28.68,8.53a5,5,0,0,1-9.91,0,5,5,0,0,1,9.91,0Z"/><ellipse class="cls-5" cx="23.73" cy="8.54" rx="5.52" ry="5.23"/></svg>