<svg id="Calque_3" data-name="Calque 3" xmlns="http://www.w3.org/2000/svg" viewBox="0 0 27.59 12.14"><defs><style>.cls-1{fill:#444d68;}.cls-2{fill:#d65a4a;}.cls-3{fill:#556080;}.cls-4{fill:#e6ebec;}.cls-5{fill:none;stroke:#556080;stroke-miterlimit:10;stroke-width:0.01px;}</style></defs><path class="cls-1" d="M7.05.08A1,1,0,0,1,7.3,0h7.15c2.5,0,5,0,7.51,0A5.57,5.57,0,0,1,23,.2a4.77,4.77,0,0,1,1.5.6A6.39,6.39,0,0,1,26,2a5.92,5.92,0,0,1,1.21,2,6.44,6.44,0,0,1,.26,1,6.07,6.07,0,0,1,.11,1.12,6.23,6.23,0,0,1-.39,2A6.15,6.15,0,0,1,26,10.1a6.18,6.18,0,0,1-2,1.48,7.34,7.34,0,0,1-1.51.47,5.33,5.33,0,0,1-1,.09H7.1a.86.86,0,0,1-.25-.07,11.73,11.73,0,0,0,1.44-.38A11.86,11.86,0,0,0,9.61,11l.24,0H21.44A5,5,0,0,0,26.3,4.74,4.87,4.87,0,0,0,25,2.51,4.93,4.93,0,0,0,21.41,1.1H9.58a6.63,6.63,0,0,0-2.26-1L7.24.1Z"/><path class="cls-1" d="M7.05.08l.19,0,.08,0a6.63,6.63,0,0,1,2.26,1l.07.06A6,6,0,0,1,12,4.81a6,6,0,0,1-1.1,4.93A7.32,7.32,0,0,1,9.61,11a11.86,11.86,0,0,1-1.32.69,11.73,11.73,0,0,1-1.44.38,2.7,2.7,0,0,1-.49,0A11.3,11.3,0,0,1,4.81,12,5.87,5.87,0,0,1,1,9.34,5.94,5.94,0,0,1,.09,7.07a5.87,5.87,0,0,1,0-2.21A6.06,6.06,0,0,1,4.4.23,5.79,5.79,0,0,1,7,.08ZM6.08,11A4.9,4.9,0,0,0,11,6.08,5,5,0,0,0,1.11,6,4.93,4.93,0,0,0,6.08,11Z"/><path class="cls-2" d="M9.61,11A7.32,7.32,0,0,0,10.9,9.74,6.08,6.08,0,0,0,9.65,1.17l-.07-.06H21.41A4.93,4.93,0,0,1,25,2.51,4.87,4.87,0,0,1,26.3,4.74,5,5,0,0,1,21.44,11H9.85Z"/><path class="cls-3" d="M7.32.12,7.24.1Z"/><path class="cls-4" d="M6.08,11a4.94,4.94,0,1,1,0-9.88,4.91,4.91,0,0,1,4.95,5A4.9,4.9,0,0,1,6.08,11Z"/><path class="cls-5" d="M7.05.08A1,1,0,0,1,7.3,0h7.15c2.5,0,5,0,7.51,0A5.57,5.57,0,0,1,23,.2a4.77,4.77,0,0,1,1.5.6A6.39,6.39,0,0,1,26,2a5.92,5.92,0,0,1,1.21,2,6.44,6.44,0,0,1,.26,1,6.07,6.07,0,0,1,.11,1.12,6.23,6.23,0,0,1-.39,2A6.15,6.15,0,0,1,26,10.1a6.18,6.18,0,0,1-2,1.48,7.34,7.34,0,0,1-1.51.47,5.33,5.33,0,0,1-1,.09H7.1a.86.86,0,0,1-.25-.07,11.73,11.73,0,0,0,1.44-.38A11.86,11.86,0,0,0,9.61,11l.24,0H21.44A5,5,0,0,0,26.3,4.74,4.87,4.87,0,0,0,25,2.51,4.93,4.93,0,0,0,21.41,1.1H9.58a6.63,6.63,0,0,0-2.26-1L7.24.1Z"/><path class="cls-5" d="M7.05.08l.19,0,.08,0a6.63,6.63,0,0,1,2.26,1l.07.06A6,6,0,0,1,12,4.81a6,6,0,0,1-1.1,4.93A7.32,7.32,0,0,1,9.61,11a11.86,11.86,0,0,1-1.32.69,11.73,11.73,0,0,1-1.44.38,2.7,2.7,0,0,1-.49,0A11.3,11.3,0,0,1,4.81,12,5.87,5.87,0,0,1,1,9.34,5.94,5.94,0,0,1,.09,7.07a5.87,5.87,0,0,1,0-2.21A6.06,6.06,0,0,1,4.4.23,5.79,5.79,0,0,1,7,.08ZM6.08,11A4.9,4.9,0,0,0,11,6.08,5,5,0,0,0,1.11,6,4.93,4.93,0,0,0,6.08,11Z"/><path class="cls-5" d="M9.61,11A7.32,7.32,0,0,0,10.9,9.74,6.08,6.08,0,0,0,9.65,1.17l-.07-.06H21.41A4.93,4.93,0,0,1,25,2.51,4.87,4.87,0,0,1,26.3,4.74,5,5,0,0,1,21.44,11H9.85Z"/><path class="cls-5" d="M7.32.12,7.24.1Z"/><path class="cls-5" d="M6.08,11a4.94,4.94,0,1,1,0-9.88,4.91,4.91,0,0,1,4.95,5A4.9,4.9,0,0,1,6.08,11Z"/></svg>